<?xml version="1.0" encoding="UTF-8"?>
<svg version="1.1" xmlns="http://www.w3.org/2000/svg" style="display: block; background: transparent;" viewBox="0 0 2048 787" width="666" height="256" preserveAspectRatio="none">
<path transform="translate(0,0)" fill="rgb(255,255,255)" d="M 0 0 L 2048 0 L 2048 787 L 0 787 L 0 0 z"/>
<path transform="translate(0,0)" fill="rgb(2,40,61)" d="M 1125.09 250.26 C 1152.95 248.317 1184.09 249.117 1203.48 272.536 C 1208.83 279.003 1213.3 285.875 1218.02 292.815 C 1217.2 279.749 1216.99 268.226 1216.93 255.113 C 1239.56 254.889 1262.18 255.133 1284.8 255.847 C 1283.03 279.629 1284.19 314.004 1284.19 338.702 L 1284.18 489.816 C 1261.49 490.041 1238.79 490.095 1216.09 489.979 C 1217.14 467.921 1218.44 449.429 1220.99 427.5 C 1221.57 423.408 1222.49 419.163 1221.62 415.158 L 1220.27 414.477 C 1218.14 418.645 1217.17 424.98 1216.22 429.658 C 1209.26 462.677 1191.99 487.003 1157.59 493.464 C 1095.22 505.178 1049.81 465.439 1040.01 404.828 C 1033.97 367.465 1036.57 324.257 1058.23 291.634 C 1075.09 266.227 1095.54 255.485 1125.09 250.26 z"/>
<path transform="translate(0,0)" fill="rgb(255,255,255)" d="M 1147.94 308.322 C 1181.36 305.039 1206.64 316.713 1213.45 351.211 C 1221.19 390.415 1210.9 426.193 1169.33 435.897 C 1168.78 436.008 1168.24 436.107 1167.68 436.195 C 1126.1 442.837 1099.72 414.58 1100.72 373.649 C 1101.57 338.731 1109.21 313.777 1147.94 308.322 z"/>
<path transform="translate(0,0)" fill="rgb(2,40,61)" d="M 556.983 250.31 C 609.612 245.975 655.075 264.659 675.266 316.696 C 684.845 341.384 683.89 363.384 683.677 389.453 C 668.004 390.444 651.361 389.81 635.63 390.043 C 597.235 390.613 557.161 388.981 518.912 390.706 C 526.719 404.446 528.398 419.496 544.335 427.633 C 584.804 448.295 626.019 429.105 663.753 419.036 L 666.354 418.661 C 668.996 421.791 670.004 468.894 670.31 476.446 C 619.573 497.943 550.144 506.649 502.709 472.483 C 449.026 433.816 443.671 345.988 480.626 294.157 C 499.462 267.739 525.484 255.078 556.983 250.31 z"/>
<path transform="translate(0,0)" fill="rgb(255,255,255)" d="M 562.912 306.223 C 598.962 302.019 611.336 315.406 620.804 347.361 C 606.825 348.02 591.95 347.776 577.89 347.773 L 520.485 347.636 C 531.506 322.301 534.48 312.824 562.912 306.223 z"/>
<path transform="translate(0,0)" fill="rgb(2,40,61)" d="M 314.174 248.37 C 360.837 242.596 400.884 261.183 411.205 309.746 C 416.874 336.419 415.181 364.778 415.192 391.985 L 415.357 490.066 L 348.277 490.161 C 347.865 457.419 347.718 424.675 347.836 391.93 C 347.835 372.781 350.802 334.805 340.658 319.248 C 328.373 300.407 286.363 304.266 270.287 315.826 C 260.442 322.906 258.358 333.994 256.876 345.242 C 254.391 362.216 254.961 387.225 254.969 404.57 L 255.131 489.911 L 189.681 490.025 C 189.311 447.148 189.163 404.269 189.236 361.39 C 188.875 325.956 189.107 290.519 189.929 255.093 C 210.252 254.979 230.576 255.069 250.897 255.364 C 250.335 265.829 244.318 318.365 246.693 323.235 L 248.45 323.594 C 250.641 320.484 252.272 307.029 253.355 302.424 C 260.742 270.994 282.025 252.047 314.174 248.37 z"/>
<path transform="translate(0,0)" fill="rgb(2,40,61)" d="M 808.86 197.318 C 812.348 197.069 811.753 196.573 814.244 198.134 C 815.36 206.274 814.723 244.852 814.782 255.359 C 834.062 254.881 853.638 255.442 872.98 255.362 C 872.893 275.195 872.667 295.027 872.301 314.856 C 853.486 314.407 833.753 314.822 814.853 314.958 C 814.311 346.061 813.419 377.899 815.703 408.899 C 818.183 442.559 857.719 431.15 879.756 427.537 C 880.135 447.359 883.822 466.992 883.775 487.326 C 873.034 489.749 862.922 492.126 852.025 493.749 C 825.387 497.9 791.148 495.999 770.791 475.956 C 744.646 450.215 748.765 414.083 748.804 380.149 C 748.909 358.415 748.853 336.681 748.634 314.948 C 736.908 314.765 725.181 314.723 713.454 314.821 L 713.503 255.779 C 725.191 255.325 736.887 255.104 748.583 255.115 C 748.102 240.169 748.839 220.488 749.01 205.166 C 771.031 204.352 787.232 200.42 808.86 197.318 z"/>
<path transform="translate(0,0)" fill="rgb(2,40,61)" d="M 928.873 255.141 L 993.224 255.123 L 993.257 489.994 L 928.234 489.979 L 928.119 360.957 C 928.107 326.014 927.62 289.992 928.873 255.141 z"/>
<path transform="translate(0,0)" fill="rgb(20,177,193)" d="M 1619 387.138 C 1643.08 383.289 1665.7 399.73 1669.47 423.818 C 1673.25 447.905 1656.73 470.475 1632.63 474.171 C 1608.64 477.85 1586.2 461.427 1582.44 437.448 C 1578.69 413.469 1595.04 390.97 1619 387.138 z"/>
<path transform="translate(0,0)" fill="rgb(117,78,150)" d="M 1632.37 255.312 C 1642.17 254.684 1653.92 257.405 1661.99 263.227 C 1670.86 269.753 1676.8 279.524 1678.5 290.409 C 1682.55 316.379 1665.06 334.01 1640.34 337.697 C 1628.89 338.522 1617.85 334.926 1608.65 328.212 C 1587.47 312.754 1586.16 276.254 1609.56 262.152 C 1617.4 257.432 1623.42 256.467 1632.37 255.312 z"/>
<path transform="translate(0,0)" fill="rgb(224,23,98)" d="M 1693.36 317.323 C 1727.91 313.847 1752.61 340.527 1742.34 375.754 C 1738.53 388.821 1724.56 396.831 1712.6 402.035 C 1703.61 405.259 1692.35 402.445 1684.33 397.733 C 1674.38 391.951 1667.19 382.393 1664.4 371.229 C 1658.57 348.544 1669.55 323.411 1693.36 317.323 z"/>
<path transform="translate(0,0)" fill="rgb(17,122,182)" d="M 1549.98 328.431 C 1572.68 324.785 1593.99 340.346 1597.44 363.078 C 1600.89 385.809 1585.14 406.99 1562.38 410.237 C 1539.9 413.443 1519.04 397.932 1515.63 375.481 C 1512.23 353.03 1527.56 332.032 1549.98 328.431 z"/>
<path transform="translate(0,0)" fill="rgb(2,40,61)" d="M 955.919 164.366 C 966.614 163.707 977.555 164.31 986.508 170.797 C 993.469 175.813 998.088 183.444 999.305 191.937 C 1001.11 204.221 996.593 217.714 986.271 225.007 C 980.441 229.126 976.536 229.171 969.695 229.975 C 956.934 230.337 944.089 231.108 933.262 222.595 C 919.649 212.007 918.339 189.818 929.115 176.796 C 936.595 167.758 944.709 165.472 955.919 164.366 z"/>
<path transform="translate(0,0)" fill="rgb(117,78,150)" d="M 1695.22 449.429 C 1717.21 448.854 1724.62 458.941 1730.27 478.209 C 1725.42 501.725 1712.56 513.261 1688.72 517.164 C 1679.54 517.412 1671.71 516.343 1664.16 510.647 C 1658.42 506.396 1654.65 499.988 1653.74 492.901 C 1650.83 469.409 1673.54 451.979 1695.22 449.429 z"/>
<path transform="translate(0,0)" fill="rgb(17,122,182)" d="M 1568.7 214.163 C 1577.58 213.401 1584.71 213.099 1592.84 217.66 C 1599.13 221.171 1603.71 227.096 1605.52 234.063 C 1611.39 255.978 1590.19 272.944 1571.26 277.883 C 1562.65 278.64 1555.56 277.907 1547.91 273.453 C 1541.12 269.559 1536.19 263.092 1534.23 255.516 C 1528.78 233.917 1550.36 218.653 1568.7 214.163 z"/>
<path transform="translate(0,0)" fill="rgb(224,23,98)" d="M 1484.04 405.069 C 1487.64 404.832 1493.62 404.52 1496.98 405.518 C 1522.08 412.968 1542.83 449.324 1519.95 470.216 C 1517.34 472.603 1512.98 474.847 1509.83 476.548 C 1477.9 486.722 1443.63 427.71 1484.04 405.069 z"/>
<path transform="translate(0,0)" fill="rgb(169,205,69)" d="M 1686.05 204.311 C 1709.03 202.709 1726.76 208.463 1737.07 230.26 C 1745.73 248.568 1736.74 257.632 1720.52 264.796 C 1671.95 273.063 1644.69 214.232 1686.05 204.311 z"/>
<path transform="translate(0,0)" fill="rgb(169,205,69)" d="M 1542.65 467.275 C 1587.45 464.343 1616.04 510.604 1571.14 529.34 C 1527.12 535.129 1497.53 475.926 1542.65 467.275 z"/>
<path transform="translate(0,0)" fill="rgb(20,177,193)" d="M 1750.72 256.19 C 1783.65 253.703 1792.68 283.293 1792.04 310.444 C 1786.32 319.268 1783.53 323.271 1773.18 326.009 C 1748.96 326.92 1732.09 309.348 1730.13 285.542 C 1729.51 278.038 1730.93 272.386 1732.67 265.087 C 1739.7 258.988 1741.65 258.12 1750.72 256.19 z"/>
<path transform="translate(0,0)" fill="rgb(169,205,69)" d="M 1504.72 274.362 C 1519.16 273.59 1529.84 279.807 1533.17 294.575 C 1535.51 305.239 1533.57 316.399 1527.75 325.639 C 1521.37 335.715 1513.72 340.284 1502.38 342.885 C 1469.62 345.507 1465.73 309.099 1480.73 287.895 C 1486.66 279.506 1494.5 275.757 1504.72 274.362 z"/>
<path transform="translate(0,0)" fill="rgb(169,205,69)" d="M 1755.47 387.158 C 1770.3 385.535 1780.42 394.531 1783.1 408.884 C 1785.25 420.654 1782.65 432.798 1775.85 442.647 C 1770.64 450.151 1763.26 455.827 1754.15 457.465 C 1723.93 456.534 1718.2 431.914 1728.21 407.283 C 1732.47 396.802 1745.1 390.411 1755.47 387.158 z"/>
<path transform="translate(0,0)" fill="rgb(20,177,193)" d="M 1599.38 518.807 C 1611.99 512.054 1621.63 511.752 1634.95 515.037 C 1645.18 517.56 1662.99 530.105 1657.87 541.256 C 1646.12 566.83 1619.09 564.089 1599.38 555.581 C 1581.06 545.689 1584.79 530.136 1599.38 518.807 z"/>
<path transform="translate(0,0)" fill="rgb(20,177,193)" d="M 1599.38 555.581 C 1581.06 545.689 1584.79 530.136 1599.38 518.807 C 1599.23 527.7 1598.44 547.561 1599.38 555.581 z"/>
<path transform="translate(0,0)" fill="rgb(117,78,150)" d="M 1448.53 344.954 C 1469.76 341.46 1479.12 365.759 1477.7 382.815 C 1476.28 399.961 1473.39 405.963 1458.63 415.1 C 1457.05 415.553 1455.22 416.007 1453.54 415.581 C 1427.6 408.979 1423.19 367.094 1440.69 350.235 C 1442.46 348.527 1446.26 346.301 1448.53 344.954 z"/>
<path transform="translate(0,0)" fill="rgb(0,0,0)" d="M 942.497 523.614 C 945.813 523.277 954.339 522.335 957.166 522.747 C 977.294 525.675 978.243 561.826 964.253 572.269 C 955.471 578.825 947.682 577.388 938.154 576.389 L 936.627 576.936 C 935.094 580.604 936.753 588.609 935.599 594.593 L 933.095 595.755 C 929.403 595.499 930.293 596.089 927.764 594.016 C 927.778 570.681 927.915 547.346 928.173 524.013 C 933.848 524.219 936.846 524.159 942.497 523.614 z"/>
<path transform="translate(0,0)" fill="rgb(255,255,255)" d="M 955.269 529.385 C 967.148 528.896 973.86 566.133 950.249 571.152 L 936.326 570.871 C 935.942 557.732 935.833 544.587 935.998 531.443 L 955.269 529.385 z"/>
<path transform="translate(0,0)" fill="rgb(224,23,98)" d="M 1629.88 173.307 C 1672.5 169.374 1692.54 207.039 1649.68 216.243 C 1640.15 216.315 1630.92 216.643 1622.02 212.603 C 1592.95 199.403 1601.05 176.903 1629.88 173.307 z"/>
<path transform="translate(0,0)" fill="rgb(17,122,182)" d="M 1795.07 318.972 C 1824.19 316.858 1833.59 365.866 1810.03 385.352 C 1808.15 385.443 1801.66 385.526 1800.34 384.95 C 1775.95 374.33 1772.47 333.324 1795.07 318.972 z"/>
<path transform="translate(0,0)" fill="rgb(0,0,0)" d="M 589.112 522.349 C 617.236 521.895 623.237 547.86 611.176 569.204 C 607.808 575.165 600.716 576.826 594.251 577.73 C 561.757 578.983 558.929 528.153 589.112 522.349 z"/>
<path transform="translate(0,0)" fill="rgb(255,255,255)" d="M 591.151 529.174 C 609.556 529.865 612.72 545.948 606.626 560.914 C 604.09 567.141 599.483 569.063 593.509 571.123 C 572.878 571.3 568.5 533.533 591.151 529.174 z"/>
<path transform="translate(0,0)" fill="rgb(0,0,0)" d="M 375.186 522.217 C 388.604 521.35 399.297 526.432 401.973 540.29 C 405.019 556.065 401.926 573.484 384.286 577.497 C 347.698 581.288 347.22 529.618 375.186 522.217 z"/>
<path transform="translate(0,0)" fill="rgb(255,255,255)" d="M 378.527 529.216 C 400.571 527.678 401.048 564.513 382.6 571.481 C 379.826 571.4 374.728 571.427 372.497 569.935 C 361.984 562.905 360.449 545.257 366.897 535.012 C 369.798 530.403 373.656 530.171 378.527 529.216 z"/>
<path transform="translate(0,0)" fill="rgb(0,0,0)" d="M 197.435 522.887 C 247.606 522.007 237.895 530.515 238.202 576.69 C 223.722 574.737 217.037 577.896 203.581 577.151 C 202.952 576.973 202.328 576.778 201.71 576.567 C 195.556 574.444 194.487 566.933 194.406 561.128 C 194.107 539.68 216.413 544.845 229.897 539.056 C 232.987 524.895 206.936 531.396 199.004 530.931 C 197.005 528.693 197.596 526.452 197.435 522.887 z"/>
<path transform="translate(0,0)" fill="rgb(255,255,255)" d="M 221.331 550.406 C 224.127 550.25 225.981 549.942 228.602 550.946 C 229.65 552.055 231.22 553.262 231.236 554.691 C 231.366 566.726 219.239 570.178 210.926 571.718 C 208.108 571.779 207.784 571.675 205.35 570.241 C 193.417 554.883 209.266 551.328 221.331 550.406 z"/>
<path transform="translate(0,0)" fill="rgb(0,0,0)" d="M 715.314 523.51 C 766.215 520 751.127 536.638 754.044 575.979 C 740.153 574.939 729.159 578.536 715.464 575.344 C 710.185 571.917 709.199 568.992 708.543 562.881 C 706.113 540.228 740.251 544.47 746.551 537.399 L 746.204 535.073 C 737.869 524.957 717.862 535.037 712.697 527.692 C 713.067 525.043 713.045 525.763 715.314 523.51 z"/>
<path transform="translate(0,0)" fill="rgb(255,255,255)" d="M 731.76 550.309 C 735.952 550.1 740.899 550.149 745.16 550.08 C 745.211 555.688 744.72 561.594 744.347 567.215 C 738.766 568.954 735.003 569.678 729.238 570.737 C 713.24 572.52 709.674 554.957 731.76 550.309 z"/>
<path transform="translate(0,0)" fill="rgb(0,0,0)" d="M 1002.22 522.418 C 1026.78 520.956 1028.8 528.955 1029.02 551.302 C 1029.07 555.716 1030.04 571.963 1027.68 575.055 C 1020.91 576.902 1011.26 576.219 1004.13 576.776 C 996.792 577.348 992.878 576.49 987.268 571.595 C 986.228 569.693 985.425 567.67 984.878 565.573 C 978.228 539.862 1017.11 545.477 1021.93 537.184 C 1020.64 523.097 996.753 534.211 990.674 529.11 C 989.918 525.993 989.79 527.248 991.104 524.386 C 994.043 522.438 998.562 522.626 1002.22 522.418 z"/>
<path transform="translate(0,0)" fill="rgb(255,255,255)" d="M 1009.11 550.365 L 1021.93 549.968 C 1021.67 556.548 1021.07 560.426 1019.95 566.948 C 1015.87 568.737 1010.95 569.953 1006.62 571.173 C 986.057 572.101 986.618 553.464 1009.11 550.365 z"/>
<path transform="translate(0,0)" fill="rgb(0,0,0)" d="M 1213.16 522.343 C 1234.35 522.005 1236.99 532.543 1239.5 550.865 L 1195.61 551.242 C 1204.37 570.328 1209.21 574.469 1230.19 568.882 C 1232.53 567.444 1234.43 565.892 1237.12 566.052 L 1238.43 567.594 L 1237.98 570.052 C 1232.07 578.502 1222.44 578.074 1213.14 577.498 C 1190.84 576.115 1182.38 550.116 1193.84 533.159 C 1198.76 525.877 1204.81 523.719 1213.16 522.343 z"/>
<path transform="translate(0,0)" fill="rgb(255,255,255)" d="M 1210.61 529.307 C 1225.46 528.176 1226.86 531.035 1231.99 544.43 L 1217.7 544.077 L 1196.36 544.322 C 1200.3 536.356 1202.39 532.704 1210.61 529.307 z"/>
<path transform="translate(0,0)" fill="rgb(20,177,193)" d="M 1793.39 440.146 C 1809.11 439.379 1811.24 451.5 1807.49 464.015 C 1803.98 475.756 1794.11 487.48 1783.53 493.486 C 1780.94 493.419 1774.83 493.298 1772.87 492.093 C 1762.1 485.187 1766.97 467.603 1771.99 458.394 C 1776.86 449.457 1783.56 443.034 1793.39 440.146 z"/>
<path transform="translate(0,0)" fill="rgb(224,23,98)" d="M 1474.76 238.886 C 1498.09 238.515 1488.1 267.027 1480.11 278.21 C 1474.68 285.802 1470.27 288.17 1461.82 291.505 C 1446.21 292.962 1443.81 282.541 1447.79 269.784 C 1452.19 255.662 1462.01 245.992 1474.76 238.886 z"/>
<path transform="translate(0,0)" fill="rgb(117,78,150)" d="M 1548.99 157.094 C 1556.97 153.79 1566.04 154.019 1574.32 156.044 C 1578.34 159.821 1584.68 159.58 1589.7 160.138 C 1597.75 160.204 1609.6 159.366 1611.72 168.911 C 1608.56 182.818 1582.23 186.535 1570.59 183.618 C 1564.4 182.068 1562.21 180.045 1558.09 175.666 C 1558.72 172.003 1556.63 170.757 1554.35 168.583 L 1549.07 170.228 C 1546.52 170.5 1543.96 170.736 1541.4 170.937 C 1537.27 171.232 1532.6 171.314 1532.43 166.226 C 1536.24 160.329 1542.25 159.329 1548.99 157.094 z"/>
<path transform="translate(0,0)" fill="rgb(17,122,182)" d="M 1548.99 157.094 C 1556.97 153.79 1566.04 154.019 1574.32 156.044 C 1567.93 162.041 1556.25 166.49 1554.35 168.583 L 1549.07 170.228 C 1546.52 170.5 1543.96 170.736 1541.4 170.937 C 1537.27 171.232 1532.6 171.314 1532.43 166.226 C 1536.24 160.329 1542.25 159.329 1548.99 157.094 z"/>
<path transform="translate(0,0)" fill="rgb(227,227,253)" d="M 1574.32 156.044 C 1578.34 159.821 1584.68 159.58 1589.7 160.138 C 1575.03 164.418 1570.02 164.652 1558.09 175.666 C 1558.72 172.003 1556.63 170.757 1554.35 168.583 C 1556.25 166.49 1567.93 162.041 1574.32 156.044 z"/>
<path transform="translate(0,0)" fill="rgb(20,177,193)" d="M 1528.39 194.312 C 1570.29 190.109 1546.62 224.255 1520.02 232.843 C 1484.57 238.599 1494.8 203.679 1528.39 194.312 z"/>
<path transform="translate(0,0)" fill="rgb(224,23,98)" d="M 1745.46 499.333 C 1777.35 500.077 1754.88 536.89 1724.94 540.97 C 1693.05 538.948 1718.46 501.628 1745.46 499.333 z"/>
<path transform="translate(0,0)" fill="rgb(0,0,0)" d="M 421.12 521.172 C 425.424 522.875 424.814 523.682 427.673 528.217 C 442.479 523.993 448.794 524.455 463.366 523.09 C 470.64 536.573 476.479 550.823 482.506 564.905 C 487.15 553.262 493.052 538.326 498.407 526.747 C 499.187 525.06 502.807 522.233 505.373 521.831 L 506.084 523.162 C 503.386 534.817 487.194 571.318 481.678 582.878 C 478.54 588.416 476.977 592.686 471.07 595.001 L 469.94 594.011 C 470.158 589.533 475.83 578.296 477.862 573.756 C 470.986 558.538 464.833 542.007 457.188 527.345 C 452.125 529.336 433.534 532.624 426.91 534.028 C 426.767 543.291 427.442 572.118 423.237 578.136 L 421.933 577.464 C 418.059 567.439 418.558 531.888 421.12 521.172 z"/>
<path transform="translate(0,0)" fill="rgb(0,0,0)" d="M 1093.11 506.241 C 1100.63 508.825 1098.82 516.279 1098.53 522.92 C 1103.72 523.031 1116.38 522.141 1118.82 527.402 C 1114.82 531.883 1104.6 530.749 1098.76 530.694 C 1099.03 540.866 1097.94 557.383 1100.1 567.11 C 1101.29 572.473 1114.1 570.215 1120.7 572.757 L 1121.17 574.424 C 1117.55 577.606 1115 576.476 1110.73 577.103 C 1084.06 581.023 1090.16 550.363 1090.25 531.118 L 1088.91 530.147 C 1079.1 528.626 1066.12 532.033 1056.18 533.995 C 1056.17 543.094 1059.99 576.572 1050.64 577.786 C 1047.23 574.354 1047.37 526.324 1050.92 523.001 C 1055.01 523.312 1056.84 528.267 1058.38 527.879 C 1069.92 524.977 1077.11 524.005 1089.15 524.872 C 1089.88 516.977 1090.59 513.708 1093.11 506.241 z"/>
<path transform="translate(0,0)" fill="rgb(0,0,0)" d="M 663.314 520.666 C 667.258 524.145 679.412 560.006 681.808 567.076 C 682.733 558.111 687.889 528.551 694.578 523.092 L 695.827 523.523 C 698.34 531.079 688.91 559.317 687.246 568.32 C 686.508 572.313 684.292 578.237 679.241 577.155 C 670.868 569.473 668.364 544.547 664.182 532.617 C 661.091 542.322 652.421 576.404 641.915 577.405 C 639.464 573.092 625.617 523.937 630.763 521.79 C 637.44 525.622 644.649 558.228 646.137 566.661 C 651.524 547.678 655.142 538.833 663.314 520.666 z"/>
<path transform="translate(0,0)" fill="rgb(17,122,182)" d="M 1443.87 468.945 C 1447.66 469.461 1451.32 470.686 1454.65 472.556 C 1467.18 479.548 1482.92 500.799 1474.72 515.085 C 1470.92 517.729 1470.73 517.009 1465.75 517.4 C 1449.91 515.074 1419.69 481.389 1443.87 468.945 z"/>
<path transform="translate(0,0)" fill="rgb(20,177,193)" d="M 1481.21 523.241 C 1486.69 522.869 1492.53 522.197 1497.87 523.538 C 1513.47 527.454 1534.1 541.103 1528.98 559.766 C 1503.75 565.966 1480.48 550.671 1481.21 523.241 z"/>
<path transform="translate(0,0)" fill="rgb(17,122,182)" d="M 1429.53 298.358 C 1436.03 307.636 1442.82 314.786 1440.36 326.474 C 1438.72 334.241 1430.85 358.069 1420.64 355.188 C 1406.17 351.106 1411.95 324.903 1416.71 315.985 C 1419.67 312.899 1426.56 302.304 1429.53 298.358 z"/>
<path transform="translate(0,0)" fill="rgb(224,23,98)" d="M 1779.96 221.606 C 1798.08 222.179 1825.9 251.238 1810.36 267.539 C 1795.39 271.378 1769.56 241.632 1779.96 221.606 z"/>
<path transform="translate(0,0)" fill="rgb(117,78,150)" d="M 1823.22 378.609 C 1845.29 378.302 1837.34 418.18 1825.33 429.622 C 1810.55 430.998 1809.92 420.422 1810.59 408.175 C 1811.23 396.645 1814.17 386.393 1823.22 378.609 z"/>
<path transform="translate(0,0)" fill="rgb(117,78,150)" d="M 1730.6 181.001 C 1731.52 180.988 1732.45 180.996 1733.37 181.025 C 1746.91 181.321 1772.86 197.825 1772.36 211.928 C 1770.65 215.183 1770.91 214.319 1767.24 216.416 C 1751.89 217.628 1737.82 209.581 1728.04 198.293 C 1722.08 191.412 1724.42 185.824 1730.6 181.001 z"/>
<path transform="translate(0,0)" fill="rgb(169,205,69)" d="M 1537.95 560.401 C 1548.69 559.7 1564.07 558.549 1573.92 562.418 C 1581.19 565.288 1587.03 570.934 1590.14 578.112 C 1589.77 581.259 1589.9 580.313 1587.32 583.001 C 1572.26 588.159 1552.28 585.952 1540.73 573.764 C 1536.7 569.509 1537.56 565.894 1537.95 560.401 z"/>
<path transform="translate(0,0)" fill="rgb(0,0,0)" d="M 1152.48 523.345 C 1179.54 519.805 1174.92 540.414 1175.24 559.671 C 1175.34 565.532 1174.33 570.979 1172.77 576.588 L 1171.31 577.143 C 1157.79 571.979 1178.81 531.576 1155.61 529.639 L 1138.97 532.327 C 1139.11 539.618 1139.25 571.065 1137.61 576.24 L 1135.53 577.141 L 1133.36 576.06 C 1129.21 569.616 1130.88 534.904 1130.94 524.775 C 1139.49 525.134 1143.98 524.565 1152.48 523.345 z"/>
<path transform="translate(0,0)" fill="rgb(17,122,182)" d="M 1675.78 550.358 C 1683.17 549.809 1694.97 548.833 1698.95 556.279 C 1700.29 567.318 1682.93 574.061 1674.12 575.696 C 1665.89 576.215 1653.58 577.857 1649.74 568.601 C 1648.49 555.71 1666.21 551.894 1675.78 550.358 z"/>
<path transform="translate(0,0)" fill="rgb(0,0,0)" d="M 259.26 520.436 C 268.813 524.494 253.134 572.021 275.277 571.117 C 304.905 569.908 287.041 531.668 294.14 523.034 C 296.337 522.505 296.633 522.43 298.706 523.29 C 300.399 526.69 299.794 532.259 299.697 536.25 C 299.787 544.254 300.787 569.647 299.567 575.751 L 298.293 576.387 C 285.563 573.279 271.212 580.573 262.293 574.973 C 252.917 569.086 253.735 528.341 259.26 520.436 z"/>
<path transform="translate(0,0)" fill="rgb(0,0,0)" d="M 829.692 520.398 C 836.654 522.466 851.373 555.98 854.513 563.534 C 858.309 553.721 866.584 528.666 874.932 523.165 L 876.206 524.076 C 876.171 532.558 868.873 547.524 865.374 555.724 C 860.913 564.785 851.843 594.633 841.937 596.111 C 840.179 591.773 847.681 579.219 850.088 572.948 C 843.181 560.311 829.094 534.398 829.692 520.398 z"/>
<path transform="translate(0,0)" fill="rgb(117,78,150)" d="M 1411.87 408.538 C 1435.77 414.539 1436.46 444.42 1429.7 463.463 L 1427.85 463.247 C 1409.32 446.029 1404.88 433.574 1411.87 408.538 z"/>
<path transform="translate(0,0)" fill="rgb(0,0,0)" d="M 772.737 521.613 C 779.07 524.017 776.297 529.856 785.41 525.703 C 820.771 509.589 816.79 550.425 816.178 572.036 C 816.132 573.676 815.272 577.011 813.928 578.057 C 813.202 577.926 811.744 577.883 811.222 577.381 C 807.296 573.607 808.54 546.024 807.995 538.748 C 804.958 523.533 789.639 530.324 779.056 533.157 C 778.864 542.297 779.327 571.782 775.344 577.685 L 774.087 577.298 C 770.04 568.085 771.488 531.89 772.737 521.613 z"/>
<path transform="translate(0,0)" fill="rgb(0,0,0)" d="M 515.077 524.126 C 530.069 523.326 547.134 523.871 562.225 524.321 C 550.129 539.424 537.714 554.268 524.989 568.845 C 533.954 569.054 551.831 568.42 559.939 571.349 C 560.549 571.569 561.144 574.386 561.428 575.36 C 555.009 577.229 522.669 576.139 514.14 575.958 C 517.295 568.752 542.225 536.902 548.409 530.317 C 541.038 530.592 524.659 531.966 517.324 529.093 C 515.745 528.474 515.543 525.978 515.077 524.126 z"/>
<path transform="translate(0,0)" fill="rgb(17,122,182)" d="M 1672.17 154.417 C 1681.79 153.534 1689.44 153.986 1698.21 158.372 C 1702.92 160.723 1720.18 170.413 1717.03 176.773 L 1713.06 177.871 C 1709.1 178.328 1704.89 178.728 1700.92 178.875 C 1691.26 179.23 1665.44 171.771 1666.02 159.903 C 1668.03 156.505 1668.58 156.17 1672.17 154.417 z"/>
<path transform="translate(0,0)" fill="rgb(0,0,0)" d="M 321.519 506.36 C 323.114 506.828 323.551 507.472 324.793 508.654 C 326.545 512.696 326.021 518.145 325.963 522.681 C 333.459 523.015 339.634 522.476 345.987 526.324 L 346.286 527.976 C 340.612 531.765 332.705 530.698 325.959 530.375 C 326.161 540.781 323.502 560.651 329.732 568.515 C 332.098 571.501 337.19 571.172 340.998 571.309 C 344.067 571.561 345.062 571.524 347.779 572.932 L 347.723 574.316 C 345.413 575.744 344.112 575.859 341.56 576.415 C 308.88 583.538 320.921 550.588 318.036 530.989 L 315.009 529.386 C 313.758 525.951 319.908 511.452 321.519 506.36 z"/>
<path transform="translate(0,0)" fill="rgb(169,205,69)" d="M 1818.47 273.452 C 1835.59 280.18 1847.38 306.991 1835.95 322.598 C 1825.62 321.978 1817.36 304.087 1816.25 295.226 C 1815.18 286.742 1815.41 281.416 1818.47 273.452 z"/>
<path transform="translate(0,0)" fill="rgb(0,0,0)" d="M 1255.18 522.053 C 1260.45 522.897 1260.21 527.001 1263.05 526.76 C 1269.36 526.224 1276.87 523.889 1283.34 524.16 C 1285.75 524.261 1285.92 524.911 1287.12 526.484 L 1286.56 529.12 C 1284.3 530.841 1265.12 532.963 1261.09 533.505 L 1261.21 547.204 C 1261.21 555.036 1261.26 562.949 1261.1 570.772 C 1261.02 574.994 1261.61 574.346 1259.12 576.708 C 1255.86 576.851 1256.76 577.298 1254.62 575.531 C 1252.69 566.51 1253.92 532.048 1255.18 522.053 z"/>
<path transform="translate(0,0)" fill="rgb(17,122,182)" d="M 1814.08 474.684 C 1816.66 475.384 1815.7 474.844 1817.64 476.966 C 1820.03 487.736 1805.44 509.214 1795.35 513.161 C 1779.02 507.08 1807.59 479.611 1814.08 474.684 z"/>
<path transform="translate(0,0)" fill="rgb(169,205,69)" d="M 1505.72 180.889 C 1509.77 180.35 1511.46 180.532 1514.52 182.489 C 1517.01 192.968 1496.92 203.639 1489.11 206.844 C 1484.93 207.303 1482.47 208.03 1480.08 204.341 C 1480.98 195.564 1498.43 184.598 1505.72 180.889 z"/>
<path transform="translate(0,0)" fill="rgb(20,177,193)" d="M 1840.86 333.803 C 1852.86 338.691 1851.99 369.281 1849.96 379.899 C 1845.48 379.1 1843.7 378.156 1842.03 373.606 C 1838.3 363.411 1836.85 343.597 1840.86 333.803 z"/>
<path transform="translate(0,0)" fill="rgb(224,23,98)" d="M 1614.08 582.356 C 1620.71 582.165 1643.36 580.904 1645.8 588.191 C 1643.66 593.041 1639.81 592.734 1635.14 593.204 C 1627.41 593.299 1607.15 594.767 1601.75 589.128 C 1601.14 586.411 1601 587.529 1602.43 584.937 C 1605.5 582.964 1610.32 582.801 1614.08 582.356 z"/>
<path transform="translate(0,0)" fill="rgb(20,177,193)" d="M 1608.83 145.246 C 1618.71 144.41 1653.18 143.296 1658.8 151.537 L 1657.79 153.125 C 1654.8 153.636 1651.8 154.075 1648.8 154.444 C 1640.36 155.428 1618.65 156.301 1610.76 151.063 C 1608.73 149.717 1609.09 147.798 1608.83 145.246 z"/>
<path transform="translate(0,0)" fill="rgb(15,131,114)" d="M 1410.67 312.163 C 1408.74 303.913 1415.75 278.174 1422.97 276.077 C 1424.45 279.27 1423.33 283.658 1422.81 287.291 L 1429.53 298.358 C 1426.56 302.304 1419.67 312.899 1416.71 315.985 C 1415.32 312.201 1413.99 312.589 1410.67 312.163 z"/>
<path transform="translate(0,0)" fill="rgb(203,255,254)" d="M 1410.67 312.163 C 1416.3 305.945 1419.91 295.253 1422.81 287.291 L 1429.53 298.358 C 1426.56 302.304 1419.67 312.899 1416.71 315.985 C 1415.32 312.201 1413.99 312.589 1410.67 312.163 z"/>
<path transform="translate(0,0)" fill="rgb(169,205,69)" d="M 1772.43 524.782 C 1775.85 524.79 1775.34 524.318 1778.01 525.807 C 1778.93 535.036 1761.45 549.446 1752.95 552.499 L 1748.51 550.694 C 1746.35 547.999 1746.79 549.288 1746.84 545.867 C 1750.92 538.088 1764.66 528.902 1772.43 524.782 z"/>
<path transform="translate(0,0)" fill="rgb(182,16,38)" d="M 1401.69 354.361 C 1411.5 361.193 1411.6 393.51 1406.65 402.193 C 1395.59 395.919 1399.15 364.668 1401.69 354.361 z"/>
<path transform="translate(0,0)" fill="rgb(0,0,0)" d="M 1450.62 233.188 C 1455.03 227.778 1457.4 225.012 1463.97 221.983 L 1465.43 222.474 C 1465.11 228.448 1455.74 240.7 1451.54 245.119 C 1447.52 250.418 1442.75 255.023 1437.72 259.343 C 1440.5 247.331 1442.77 242.617 1450.62 233.188 z"/>
<path transform="translate(0,0)" fill="rgb(20,3,20)" d="M 1450.62 233.188 C 1450.39 237.248 1450.39 238.064 1448.39 241.546 L 1448.53 243.45 L 1451.54 245.119 C 1447.52 250.418 1442.75 255.023 1437.72 259.343 C 1440.5 247.331 1442.77 242.617 1450.62 233.188 z"/>
<path transform="translate(0,0)" fill="rgb(80,18,44)" d="M 1728.38 563.197 L 1731.26 563.444 L 1731.5 565.1 C 1724.96 572.28 1704.18 578.165 1694.49 581.013 L 1691.82 580.494 L 1691.87 578.777 C 1698.71 570.285 1718.03 565.251 1728.38 563.197 z"/>
<path transform="translate(0,0)" fill="rgb(182,16,38)" d="M 1838.57 421.79 C 1844.25 429.131 1833.07 457.134 1828.16 464.672 C 1822.53 460.59 1834.08 428.389 1838.57 421.79 z"/>
</svg>