<svg xmlns="http://www.w3.org/2000/svg" viewBox="0 0 666 256" width="666px" height="256px" transform="rotate(0) scale(1, 1)">
<path d="M310.35 53.68C313.61 53.2 317.62 53.5 320.46 55.3C326.75 59.29 326.7 70.1 320 73.73C317.96 74.83 315.51 74.97 313.25 74.97C310.03 74.98 306.81 74.52 304.11 72.62C295.33 66.44 301.28 55.02 310.35 53.68ZM265.01 64.75C265.01 70.85 265.01 76.94 265.01 83.04C271.3 83.04 277.59 83.04 283.89 83.04C283.89 89.28 283.89 95.51 283.89 101.75C278.48 104.59 270.86 100.73 265.25 102.91C263.77 108.32 264.78 123.96 265.04 130.25C265.17 133.29 265.53 137.11 268.17 139.09C272.82 142.58 280.26 139.96 285.32 139.25C287.2 142.23 287.71 155.3 286.79 158.75C281.38 159.86 276.35 160.99 270.75 161.1C266.94 161.18 263.43 160.79 259.75 159.96C239.9 155.47 243.53 128.69 243.46 113.75C243.45 110.22 244.07 105.82 243.02 102.48C239.35 102.48 235.68 102.48 232 102.48C232 96.02 232 89.56 232 83.1C235.71 83.1 239.42 83.1 243.13 83.1C243.43 77.82 243.72 72.53 244.02 67.25C247.17 66.38 262.7 63.81 265.01 64.75ZM134.75 159.24C131.29 160.25 116.55 160.22 113.38 158.75C112.59 155.01 113.15 150.59 113.14 146.75C113.11 136.28 113.55 125.71 113.16 115.25C112.9 108.4 111.71 100.54 103.25 99.97C98.29 99.64 91.47 99.71 87.51 103.27C83.16 107.17 83.09 114.85 82.99 120.25C82.84 129.07 82.89 137.93 82.89 146.75C82.89 150.86 83.47 155.41 82.75 159.44C75.91 159.44 69.08 159.44 62.25 159.44C61.01 153.72 61.85 147.11 61.84 141.25C61.81 129.25 61.92 117.25 61.87 105.25C61.85 100.45 60.84 86.99 62.5 83.25C65.96 82.7 79.15 82.1 81.71 83.75C81.88 88.81 78.56 100.79 80.58 104.75C82.75 102.96 82.31 98.55 83.23 95.92C85.11 90.58 88.86 85.8 94.06 83.32C106.78 77.24 125.91 81.01 131.87 94.84C137.17 107.15 135.02 122.61 135.02 135.75C135.02 143.29 136.12 151.85 134.75 159.24ZM396.03 93.93C396.03 90.31 396.03 86.69 396.03 83.07C403.26 83.07 410.49 83.07 417.71 83.07C417.71 108.46 417.71 133.86 417.71 159.25C410.47 159.25 403.23 159.25 395.99 159.25C395.24 154.18 396.01 148.41 396.7 143.35C397 141.16 397.96 137.7 396.75 135.9C395.54 137.41 395.43 140.17 394.82 142.15C393.29 147.1 391.29 152.4 386.97 155.71C382.02 159.52 376.45 161 370.25 161.05C352.56 161.18 341.97 148.17 338.22 132.1C336.91 126.46 337.13 119.93 337.81 114.22C340.57 91.12 356.85 76.89 380.69 82.15C384.81 83.06 389.04 85.73 391.64 89.09C393.02 90.87 394.04 92.97 396.03 93.93ZM221.75 126.72C217.59 127.48 212.98 126.97 208.75 126.97C200.42 126.98 192.08 126.97 183.75 126.98C179.65 126.98 172.86 125.74 169.25 127.57C169.46 129.5 170.76 131.4 171.65 133.1C177.61 144.54 194.02 143.01 204.55 139.75C208.4 138.56 212.74 136.65 216.75 136.62C217.11 142.66 217.46 148.71 217.82 154.75C214.25 156.79 210.3 157.64 206.39 158.71C189.9 163.21 170.28 162.03 158.12 148.64C151.14 140.94 148.87 130.33 148.83 120.25C148.82 114.35 150.06 108.44 152.26 102.98C165.82 69.45 219.47 75.91 221.96 113.75C222.22 117.78 223.13 122.87 221.75 126.72ZM322.97 83C322.97 108.41 322.97 133.83 322.97 159.24C315.98 159.24 308.99 159.24 302.01 159.24C302.01 133.83 302.01 108.41 302.01 83C308.99 83 315.98 83 322.97 83ZM201.48 113.01C199.7 94.1 171.43 95.78 169.75 113.01C180.33 113.01 190.9 113.01 201.48 113.01ZM374.82 100.22C370.02 100.56 364.94 102.24 361.79 106.04C355.62 113.46 356.59 131.02 363.64 137.6C368.04 141.71 373.87 142.66 379.75 141.99C396.46 140.08 399.73 115.57 389.93 104.83C386.44 101 379.74 99.88 374.82 100.22ZM554.5 185.98C554.73 186.5 554.96 187.03 555.19 187.56C553.6 188.28 552.32 189.24 550.67 188.25C551.95 187.49 553.22 186.74 554.5 185.98Z" fill="#ffffff" fill-rule="evenodd" stroke="#ffffff" stroke-width="0.25" stroke-linejoin="round"/>
<path d="M538.86 49.25C537.06 50.87 524.97 50.85 523.75 48.17C525.21 45.88 537.43 46.6 538.86 49.25ZM511.12 51.25C508.37 54.28 501.83 57.87 498.2 54.75C499.87 51.23 508.12 48.14 511.12 51.25ZM557.86 57.75C553.48 58.57 541.04 58.27 542.25 51.3C546.25 49.01 558.9 51.86 557.86 57.75ZM503.85 64.75C505.39 71.64 490.2 80.43 487.3 73.48C484.86 67.64 498.85 60.04 503.85 64.75ZM511.72 69.68C531.01 68.87 520.8 95.07 505.32 89.9C492.7 85.69 500.45 70.15 511.72 69.68ZM570.25 83.23C581.14 82.84 588.71 101.81 577.63 105.82C565.21 110.32 555.16 83.77 570.25 83.23ZM462.25 90.3C464.2 92.89 461.43 98.76 459.25 100.82C457.54 98.18 459.85 92.24 462.25 90.3ZM464.75 97.88C469.48 99.93 468.64 106.52 467.05 110.29C466.14 112.42 464.95 115.83 461.96 115.26C454.71 113.88 461.47 100.54 464.75 97.88ZM583.81 104.11C593.97 101.22 596.14 123.96 587.75 125.19C578.6 126.53 575.7 106.42 583.81 104.11ZM503.18 107.05C521.54 104.04 526.06 129.93 507.75 133.78C505.75 134.2 504.1 133.56 502.24 133C490.02 129.36 489.75 109.25 503.18 107.05ZM598.75 109.43C602.48 111.13 602.93 119.54 601.25 122.87C597.17 122.48 596.88 112.11 598.75 109.43ZM525.83 126.13C528.3 125.39 531.14 125.92 533.38 126.83C545.51 131.76 546.98 149.2 533.6 153.77C515.26 160.03 506.72 131.94 525.83 126.13ZM582.89 143.61C586.91 142.38 588.12 146.05 587.99 149.25C587.83 153.39 582.72 161.51 577.78 160.47C574.85 159.86 574.5 156.66 574.8 154.16C575.35 149.67 578.36 145.01 582.89 143.61ZM468.75 153.07C475.04 152.64 483.52 161.67 479.25 167.8C472.44 168.92 462.91 159.32 468.75 153.07ZM590.75 155.13C591.66 159.24 587.56 166.12 583.25 166.69C580.63 163.28 586.92 155.17 590.75 155.13ZM524.78 167.12C531.72 165.47 544.55 172.47 536.6 179.83C532.02 184.07 518.76 183.47 516.24 177.06C514.22 171.93 520.87 168.05 524.78 167.12ZM497.22 181.25C490.99 185.96 480.02 177.47 482.46 170.25C488.06 168.97 499.01 174.1 497.22 181.25ZM552.03 180.75C552.4 186.91 539.37 190.27 536.6 184.75C537.48 179.09 548.38 176.64 552.03 180.75Z" fill="#1999bd" fill-rule="evenodd" stroke="#1999bd" stroke-width="0.25" stroke-linejoin="round"/>
<path d="M475.75 72.79C476 76.02 471.34 82.19 468.25 83.29C467.47 79.35 472.32 74.24 475.75 72.79ZM105.25 165.34C105.58 166.86 105.92 168.38 106.25 169.89C108.28 170.35 110.31 170.8 112.34 171.25C110.89 173.58 108.52 172.42 106.25 172.98C105.63 175.91 104.93 183.78 108.22 185.53C109.62 186.28 111.34 185.81 112.75 186.48C110.93 188.99 105.64 188.41 104.3 185.47C102.68 181.89 104.51 177.63 103.74 173.95C103.49 172.79 102.77 172.04 102.81 170.75C102.85 168.98 103.86 166.29 105.25 165.34ZM355.75 165.43C357.5 166.32 357.12 167.93 357.31 169.75C359.57 170.28 361.64 169.82 363.17 171.75C361.52 173.33 359.38 172.75 357.25 173.23C356.83 175.83 356.44 183.75 358.83 185.44C360.41 186.56 362.53 185.46 363.92 186.75C362.43 189.48 356.66 188.01 355.35 185.4C353.39 181.46 355.22 176.92 354.25 172.99C351.76 171.93 345.84 172.56 343.66 174.25C343.61 178.12 345.14 184.39 342.25 187.46C340.39 186.37 340.41 172.95 341.75 171.03C342.85 171.07 343.7 171.8 344.72 171.8C346.22 171.8 352.07 171.04 353.75 170.75C354.42 168.97 355.08 167.2 355.75 165.43ZM76.9 187.25C75.4 187.66 73.85 187.28 72.25 187.47C67.98 187.95 63.3 188.5 63.14 182.75C62.89 174.29 73.98 178.62 74.49 173.75C71.63 171.2 65.39 174.34 64.31 170.75C65.71 169.74 67.45 170 69.25 170.05C76.92 170.3 77.84 175.02 77.4 181.75C77.27 183.63 77.58 185.49 76.9 187.25ZM84.25 170.08C87.75 173.01 82.41 185.89 89.75 185.67C99.91 185.36 91.7 172.03 96.75 170.19C98.16 173 98.38 184.06 97.25 186.93C95.79 187.59 94.49 187.1 92.91 187.25C90.86 187.44 88.71 188.38 86.65 187.62C81.8 185.84 82.38 173.8 84.25 170.08ZM121.36 170.17C132.23 166.96 134.95 185.88 125.19 187.83C115.04 189.86 112.29 172.85 121.36 170.17ZM137.25 170.16C138.08 170.7 138.92 171.25 139.75 171.8C143.36 171.28 146.96 170.77 150.57 170.25C152.63 174.4 154.69 178.54 156.75 182.69C159.95 180.54 160.15 171.26 163.88 170.25C164.79 172.12 163.04 174.7 162.37 176.61C161.03 180.36 157.24 191.41 153.75 193C152.47 190.95 155.25 188.67 155.12 186.25C154.95 183.13 150.6 174.7 148.75 172C145.89 172.02 141.32 172.57 138.98 174.25C138.9 178.56 139.7 183.57 137.75 187.55C135.55 185.07 136.23 173.53 137.25 170.16ZM190.87 170.17C201.63 166.96 204.47 186.01 194.22 187.88C183.92 189.77 181.47 172.97 190.87 170.17ZM215.87 170.25C219.56 172.78 218.47 180.08 221.75 182.78C222.93 178.97 222.91 173.74 225.75 170.83C227.22 172.71 223.98 185.92 221.75 187.5C217.22 185.64 218.5 178.18 216.29 174.75C212.95 176.68 214.36 185.48 209.25 187.15C206.8 185.24 204.71 173.42 205.25 170.24C208.67 172.83 208.66 178.88 210.25 182.68C212.12 178.54 214 174.39 215.87 170.25ZM244.75 187.32C240.53 188.07 230.77 189.7 230.31 183.25C229.76 175.5 239.62 178.77 242.37 174.75C240.7 170.93 234.87 174.26 231.96 171.75C233.56 168.53 241.66 169.99 243.84 172.4C245.74 174.49 245.43 184.54 244.75 187.32ZM264.75 187.86C260.18 185.18 266.89 170.46 257.97 172.25C256.74 172.5 255.38 172.85 254.19 173.25C253.55 177.88 252.9 182.51 252.25 187.14C250 184.72 250.82 174.2 251.25 170.75C252.48 170.69 253.49 171.17 254.75 171.14C257.2 171.07 258.97 169.34 261.66 170.14C266.36 171.54 266.85 184.43 264.75 187.86ZM270.25 170.15C274.49 172.48 274.39 179.37 277.75 182.31C280.57 179.74 280.39 171.73 284.75 171.18C284.66 175.62 280.22 183.79 278.26 187.98C277.3 190.05 276.51 192.39 274.25 193.16C273.83 190.46 276.55 188.37 275.98 185.78C274.84 180.59 269.04 175.91 270.25 170.15ZM304.87 188.25C304.33 190.15 303.79 192.05 303.25 193.95C301.2 193.04 301.96 190.26 301.96 188.25C301.98 182.76 301.05 176.32 302.25 170.99C304.92 170.6 308.95 169.41 311.62 170.19C317.75 171.97 318.31 181.92 314.05 185.79C311.2 188.39 308.21 187.39 304.87 188.25ZM334.07 186.75C329.8 188.56 320.27 189.45 320.05 182.75C319.81 175.52 329.73 178.74 332.05 174.25C330.13 170.24 324.94 174.15 322.08 171.75C323.29 168.65 330.55 169.5 332.79 171.45C335.11 173.48 335.25 184.16 334.07 186.75ZM381.25 187.11C376.4 185.12 383.52 171.23 374.98 172.28C373.68 172.44 372.23 172.92 370.96 173.25C369.54 177.14 372.28 184.5 369.25 187.47C367.05 185.38 367.52 174.17 368.25 171.09C371.32 170.64 375.5 169.25 378.57 170.24C383.25 171.75 383.42 184 381.25 187.11ZM402.84 178.75C398.31 179.04 393.78 179.33 389.25 179.62C389.3 180.88 390.11 181.85 390.8 182.92C394.18 188.12 397.95 183.95 402.25 184.36C402.5 188.19 396.61 188.36 393.78 187.86C388.21 186.9 385.46 180.51 387.21 175.4C390.21 166.68 403.27 168.63 402.84 178.75ZM418.2 171.25C416.35 174.03 412.96 172.24 410.38 173.75C409.07 177.65 411.81 184.32 409.25 187.52C406.53 186.35 407.71 173.29 408.25 170.25C411.57 170.58 414.88 170.92 418.2 171.25ZM182.02 171.25C178.57 175.75 175.12 180.25 171.66 184.75C175.01 185.7 179.66 183.94 182.37 186.75C180.29 188.43 170.05 188.13 167.95 186.75C171.18 182.25 174.42 177.75 177.65 173.25C174.81 171.44 170.62 174.31 167.94 171.25C169.33 169.91 180.4 169.97 182.02 171.25ZM122.83 172.28C115.69 173.08 117.27 187.29 124.23 185.95C130.66 184.71 130.26 171.44 122.83 172.28ZM192.25 172.27C185.69 172.74 185.81 185.51 192.26 185.84C199.56 186.22 200.26 171.69 192.25 172.27ZM305.09 185.75C317.93 187.71 316.48 167.34 304.49 173.25C303.66 176.42 303.7 182.81 305.09 185.75ZM399.96 176.95C399.99 170.31 390.31 170.83 389.74 176.95C393.15 176.95 396.55 176.95 399.96 176.95ZM74.63 179.75C72.03 178.31 68.35 179.56 66.12 181.25C65.75 183.14 65.87 184.25 67.09 185.75C70.58 186.54 76.4 184.09 74.63 179.75ZM242.02 179.25C238.53 178.67 232.46 179.52 233.25 184.19C235.98 186.72 238.75 185.39 242.02 184.75C242.02 182.92 242.02 181.08 242.02 179.25ZM332 179.25C328.27 178.62 322.68 179.54 323.03 184.25C325.72 186.85 328.77 185.45 332 184.75C332 182.92 332 181.08 332 179.25ZM555.19 187.56C554.96 187.03 554.73 186.5 554.5 185.98C556.46 184.29 560.11 183.75 562.42 184.25C560.01 185.35 557.6 186.45 555.19 187.56Z" fill="#ffffff" fill-rule="evenodd" stroke="#ffffff" stroke-width="0.25" stroke-linejoin="round"/>
<path d="M528.86 56.64C533.87 55.37 548.04 58.78 543.34 66.58C536.48 77.99 508.29 61.85 528.86 56.64ZM579.75 72.21C584.84 73.99 593.78 80.54 588.75 86.71C582.91 87.41 574.39 76.96 579.75 72.21ZM478.84 78.14C482.77 76.92 484.33 79.92 484.04 83.25C483.66 87.54 478.54 96.84 473.01 94.72C466.14 92.08 474.32 79.53 478.84 78.14ZM550.36 103.16C552.55 102.51 554.83 103.1 556.87 103.81C563.76 106.19 567.26 110.84 567.06 118.25C567 120.61 566.55 123.3 564.91 125.15C563.5 126.74 561.82 127.69 560.12 128.86C558.97 129.65 557.65 130.71 556.24 130.97C539.9 134.06 534.95 107.74 550.36 103.16ZM457.25 130.46C454.48 128.51 453.8 118.56 455.9 116.25C459.04 116.69 459.22 128.47 457.25 130.46ZM481.88 132.18C493.63 127.65 504.25 149.84 491.6 154.78C479.74 159.42 470.71 136.49 481.88 132.18ZM597.75 138.31C599.91 140.57 596.87 148.51 594.75 150.7C592.89 148.3 595.59 140.38 597.75 138.31ZM564.78 163.14C580.63 158.98 567.74 179.78 558.52 175.71C551.66 172.67 560.93 164.15 564.78 163.14ZM534.75 190.66C534.78 194.56 521.93 193.8 521.14 190.75C523.77 188.5 531.85 188.85 534.75 190.66Z" fill="#e01e65" fill-rule="evenodd" stroke="#e01e65" stroke-width="0.25" stroke-linejoin="round"/>
<path d="M491.75 59.1C493.53 63.25 485.29 68.76 481.8 66.75C481.38 62.68 488.56 59.06 491.75 59.1ZM546.34 67.1C555.65 63.72 572.3 74.69 563.8 83.57C557.99 89.65 546.99 85.54 543.19 79.12C540.82 75.1 541.41 68.89 546.34 67.1ZM489.83 89.14C503.91 88.2 500.33 112.01 487.75 111.75C474.03 111.46 477.97 89.93 489.83 89.14ZM591.25 90.01C596.96 89.79 601.48 101.8 596.25 105.02C591.13 101.86 589.76 95.53 591.25 90.01ZM570.72 126.03C584.26 123 581.81 149.99 569.25 149.07C555.88 148.09 559.44 128.54 570.72 126.03ZM500.76 152.05C509.81 149.51 524.96 161.44 515.05 169.79C508.65 175.2 498.39 170.72 495.25 163.54C493.07 158.54 495.64 153.48 500.76 152.05ZM577.75 171.03C578.58 174.86 571.63 181.1 568.15 178.25C569.8 174.95 573.91 170.81 577.75 171.03ZM517.01 188.75C512.76 193.03 502.32 189.83 499.93 184.75C500.37 183.89 500.81 183.03 501.25 182.17C506.51 181.31 515.91 182.17 517.01 188.75Z" fill="#abce4b" fill-rule="evenodd" stroke="#abce4b" stroke-width="0.25" stroke-linejoin="round"/>
<path d="M523.98 55.75C520.27 59.85 510.82 63.03 507.09 57.25C509.07 53.01 523.36 48.62 523.98 55.75ZM575.75 69.89C573.87 70.2 571.31 70.32 569.47 69.73C566.56 68.78 559.14 64.25 561.17 60.4C562.39 58.1 565.69 59 567.39 59.79C571.39 61.66 577.07 64.7 575.75 69.89ZM528.75 83.08C539.57 80.44 550.07 92.37 544.81 102.6C542.85 106.42 538.17 108.88 534.24 109.85C532.1 110.38 530.56 109.81 528.62 109.2C521.29 106.88 516.33 100.43 518.13 92.32C519.23 87.36 524.19 84.2 528.75 83.08ZM471.27 112.05C481.3 109.35 484.22 132.7 474.25 134.89C464.25 137.08 461.37 114.71 471.27 112.05ZM593.75 123.2C594.73 123.72 596.28 124.32 596.79 125.41C598.64 129.39 596.75 138.44 592.25 139.96C585.95 137.39 588.32 125.74 593.75 123.2ZM459.75 133.27C465.65 136.33 468.91 145.12 464.25 150.73C459.71 146.6 454.77 139 459.75 133.27ZM551.18 146.07C557.53 145.27 563.71 151.98 561.89 158.22C559.82 165.33 550.97 170.01 543.86 167.83C538.99 166.33 536.56 160.03 538.2 155.38C539.98 150.35 546.24 146.7 551.18 146.07Z" fill="#7a6492" fill-rule="evenodd" stroke="#7a6492" stroke-width="0.25" stroke-linejoin="round"/>
</svg>