<?xml version="1.0" standalone="no"?>
<!DOCTYPE svg PUBLIC "-//W3C//DTD SVG 20010904//EN"
 "http://www.w3.org/TR/2001/REC-SVG-20010904/DTD/svg10.dtd">
<svg version="1.0" xmlns="http://www.w3.org/2000/svg"
 width="419.000000pt" height="161.000000pt" viewBox="0 0 419.000000 161.000000"
 preserveAspectRatio="xMidYMid meet">

<g transform="translate(0.000000,161.000000) scale(0.100000,-0.100000)"
fill="#000000" stroke="none">
<path d="M3150 1280 c-12 -8 -12 -10 5 -10 11 0 27 5 35 10 12 8 12 10 -5 10
-11 0 -27 -5 -35 -10z"/>
<path d="M3410 1282 c0 -11 46 -32 70 -32 25 0 25 9 3 26 -20 15 -73 19 -73 6z"/>
<path d="M1920 1267 c-21 -11 -25 -20 -25 -57 0 -37 4 -47 27 -59 38 -22 99
-5 112 30 24 71 -43 122 -114 86z"/>
<path d="M3207 1269 c-25 -15 -12 -29 27 -29 33 0 62 20 49 33 -10 10 -56 8
-76 -4z"/>
<path d="M3299 1242 c-27 -23 -21 -48 16 -62 38 -14 60 -12 85 8 27 22 18 47
-22 61 -42 15 -52 14 -79 -7z"/>
<path d="M3534 1229 c-4 -7 4 -22 20 -36 43 -37 80 -27 47 13 -22 27 -57 39
-67 23z"/>
<path d="M1615 1205 c-5 -2 -27 -6 -47 -10 -38 -6 -38 -6 -38 -55 l0 -50 -35
0 -35 0 0 -60 0 -60 35 0 35 0 0 -127 c0 -141 11 -179 62 -216 29 -22 127 -29
181 -14 27 7 28 10 25 64 l-3 56 -60 1 -59 1 -8 40 c-5 22 -7 74 -6 115 l3 75
58 3 57 3 0 59 0 59 -57 3 -58 3 -3 58 c-3 57 -10 65 -47 52z"/>
<path d="M3166 1149 c-30 -24 -34 -59 -8 -82 54 -49 155 30 107 83 -23 26 -65
25 -99 -1z"/>
<path d="M2956 1128 c-24 -34 -19 -44 9 -18 14 13 25 27 25 32 0 16 -19 8 -34
-14z"/>
<path d="M3635 1140 c-12 -20 45 -78 65 -65 18 11 -21 75 -46 75 -7 0 -15 -4
-19 -10z"/>
<path d="M2982 1097 c-26 -28 -29 -65 -5 -74 11 -4 24 3 40 22 44 51 11 101
-35 52z"/>
<path d="M606 1096 c-50 -19 -62 -31 -87 -92 l-20 -49 6 68 6 68 -63 -3 -63
-3 0 -235 0 -235 65 0 65 0 5 162 c5 149 7 164 26 184 32 31 102 37 134 11 24
-20 25 -24 30 -189 l5 -168 65 0 65 0 3 128 c3 153 -10 261 -36 296 -43 58
-135 83 -206 57z"/>
<path d="M1082 1087 c-94 -35 -147 -119 -146 -237 0 -132 63 -216 181 -240 63
-13 158 -5 217 18 38 15 38 15 32 60 -3 25 -6 50 -6 57 0 9 -16 7 -57 -7 -41
-14 -77 -18 -122 -16 -59 4 -67 7 -93 38 -15 19 -27 39 -25 45 2 6 66 11 165
13 l162 2 0 58 c-1 95 -49 172 -132 206 -43 19 -129 20 -176 3z m160 -127 c10
-12 18 -31 18 -41 0 -17 -9 -19 -100 -19 -66 0 -100 4 -100 11 0 6 16 27 35
46 33 33 39 35 82 30 32 -3 53 -12 65 -27z"/>
<path d="M2232 1079 c-78 -39 -117 -128 -110 -248 7 -121 59 -197 150 -222 96
-25 184 20 207 109 7 23 14 42 16 42 2 0 1 -34 -2 -76 l-6 -75 64 3 64 3 3
238 2 237 -65 0 -65 0 0 -37 -1 -38 -21 29 c-44 58 -155 75 -236 35z m200
-110 c33 -18 50 -68 46 -132 -4 -52 -9 -64 -36 -88 -54 -49 -153 -33 -181 28
-15 32 -14 122 2 153 26 52 109 71 169 39z"/>
<path d="M1900 850 l0 -241 63 3 62 3 3 238 2 237 -65 0 -65 0 0 -240z"/>
<path d="M3293 1070 c-27 -16 -33 -26 -33 -55 0 -97 144 -119 165 -26 8 37 -7
66 -45 86 -38 20 -48 19 -87 -5z"/>
<path d="M2906 974 c-18 -18 -21 -69 -5 -79 15 -10 38 25 39 57 0 34 -14 43
-34 22z"/>
<path d="M3425 935 c-53 -52 -12 -145 64 -145 31 0 71 49 71 87 0 44 -37 83
-80 83 -19 0 -40 -9 -55 -25z"/>
<path d="M3649 923 c-8 -22 -7 -35 5 -61 19 -40 46 -40 60 1 23 63 -41 123
-65 60z"/>
<path d="M3129 911 c-43 -44 -34 -98 21 -126 37 -19 62 -13 90 22 34 44 23 95
-27 121 -34 18 -52 14 -84 -17z"/>
<path d="M2939 884 c-17 -21 -15 -80 4 -99 35 -34 67 -10 67 50 0 60 -39 87
-71 49z"/>
<path d="M2860 846 c0 -19 5 -38 10 -41 6 -4 10 8 10 29 0 19 -4 38 -10 41 -6
4 -10 -8 -10 -29z"/>
<path d="M3716 818 c-21 -29 -20 -67 0 -75 20 -8 34 13 34 54 0 41 -14 50 -34
21z"/>
<path d="M3012 768 c-7 -7 -12 -29 -12 -49 0 -62 67 -101 103 -61 24 26 21 65
-8 96 -25 28 -63 34 -83 14z"/>
<path d="M2885 758 c-10 -24 8 -72 28 -76 24 -5 22 39 -2 69 -17 21 -20 22
-26 7z"/>
<path d="M3745 726 c-3 -9 -7 -23 -10 -31 -2 -8 0 -15 5 -15 11 0 25 48 16 57
-3 3 -8 -2 -11 -11z"/>
<path d="M3411 664 c-35 -29 -40 -63 -13 -87 36 -33 95 -18 120 30 16 30 15
40 -8 63 -27 27 -62 25 -99 -6z"/>
<path d="M2936 635 c-6 -17 39 -75 60 -75 22 0 16 39 -11 65 -28 29 -40 31
-49 10z"/>
<path d="M3680 611 c-17 -33 -11 -47 10 -21 11 14 20 28 20 33 0 14 -20 7 -30
-12z"/>
<path d="M3527 570 c-34 -27 -36 -60 -4 -60 34 0 69 28 65 53 -4 30 -29 32
-61 7z"/>
<path d="M648 558 c-4 -8 -3 -39 0 -69 6 -46 10 -54 30 -57 12 -2 22 1 22 7 0
6 -6 11 -14 11 -29 0 -26 79 3 81 13 0 14 2 1 6 -8 4 -20 13 -26 21 -9 13 -11
13 -16 0z"/>
<path d="M2228 558 c-4 -8 -3 -39 0 -69 6 -46 10 -54 30 -57 12 -2 22 1 22 7
0 6 -7 11 -15 11 -23 0 -21 80 3 81 13 0 14 2 2 6 -8 4 -20 13 -26 21 -9 13
-11 13 -16 0z"/>
<path d="M410 540 c-11 -7 -7 -10 17 -10 44 0 51 -17 12 -28 -69 -17 -60 -76
10 -69 36 4 36 4 33 48 -3 58 -34 83 -72 59z m58 -67 c-4 -23 -58 -31 -58 -9
0 15 14 24 43 25 12 1 17 -5 15 -16z"/>
<path d="M740 530 c-25 -25 -25 -51 -1 -81 16 -20 23 -22 47 -14 24 9 30 17
32 46 5 61 -39 88 -78 49z m55 -40 c0 -29 -4 -36 -23 -38 -26 -4 -37 17 -28
54 5 19 12 25 29 22 18 -2 22 -9 22 -38z"/>
<path d="M1182 534 c-41 -28 -21 -104 28 -104 47 0 66 64 30 100 -24 24 -29
24 -58 4z m53 -44 c0 -31 -3 -35 -25 -35 -19 0 -26 6 -28 23 -5 36 5 54 30 50
19 -2 23 -9 23 -38z"/>
<path d="M1465 540 c-3 -6 5 -10 19 -10 38 0 41 -18 4 -28 -24 -6 -34 -15 -36
-31 -5 -33 10 -43 52 -36 35 7 36 9 36 51 0 33 -5 46 -19 54 -25 13 -48 13
-56 0z m55 -65 c0 -19 -24 -29 -46 -21 -13 5 -14 9 -4 21 16 20 50 19 50 0z"/>
<path d="M1611 541 c-8 -5 -20 -7 -28 -4 -10 4 -13 -7 -13 -45 0 -66 18 -77
22 -15 3 44 5 48 28 48 23 0 25 -4 28 -47 2 -27 7 -48 13 -48 16 0 10 87 -7
104 -18 18 -24 19 -43 7z"/>
<path d="M1918 543 c-27 -4 -28 -6 -28 -73 0 -38 5 -72 10 -75 6 -3 10 3 10
14 0 14 8 21 27 23 17 2 33 13 43 31 13 24 13 30 0 54 -17 29 -23 32 -62 26z
m48 -38 c9 -36 -2 -55 -31 -55 -22 0 -25 4 -25 33 0 38 6 47 31 47 11 0 21
-10 25 -25z"/>
<path d="M2030 540 c-11 -7 -7 -10 18 -10 38 0 40 -21 2 -30 -59 -14 -46 -72
16 -67 33 2 34 3 34 49 0 37 -4 50 -19 58 -24 12 -32 12 -51 0z m55 -70 c0 -9
-11 -16 -27 -18 -20 -2 -28 1 -28 12 0 8 6 17 13 19 21 9 42 2 42 -13z"/>
<path d="M2338 542 c-27 -3 -28 -6 -28 -60 0 -63 17 -61 22 3 2 32 7 40 23 40
16 0 21 -8 23 -42 4 -57 22 -55 22 2 0 49 -15 63 -62 57z"/>
<path d="M2452 534 c-26 -18 -30 -65 -6 -89 10 -10 29 -15 47 -13 44 4 44 23
0 23 -53 0 -53 29 0 33 40 3 48 20 21 46 -19 20 -34 20 -62 0z m56 -21 c2 -9
-7 -13 -27 -13 -30 0 -39 9 -24 24 11 10 46 3 51 -11z"/>
<path d="M520 496 c0 -51 14 -66 58 -63 32 2 32 2 32 56 0 54 -14 64 -16 13
-2 -49 -4 -52 -29 -52 -23 0 -25 4 -25 45 0 25 -4 45 -10 45 -5 0 -10 -20 -10
-44z"/>
<path d="M850 483 c0 -29 5 -53 10 -53 6 0 10 20 10 44 0 39 3 45 28 54 26 10
26 10 -10 9 l-38 0 0 -54z"/>
<path d="M947 503 c9 -21 17 -55 16 -77 -1 -48 8 -38 41 43 29 73 29 71 17 71
-4 0 -15 -17 -23 -37 l-15 -38 -18 38 c-10 20 -22 37 -27 37 -5 0 -1 -17 9
-37z"/>
<path d="M1083 533 c34 -5 33 -10 -3 -52 -16 -19 -27 -38 -24 -43 7 -11 84
-10 84 1 0 6 -14 11 -31 13 l-31 3 31 39 c17 21 31 40 31 42 0 2 -19 3 -42 3
-30 -2 -35 -3 -15 -6z"/>
<path d="M1284 518 c4 -13 9 -35 12 -50 9 -37 33 -36 41 2 9 45 21 45 33 0 6
-22 15 -38 20 -35 12 8 33 83 27 98 -3 7 -8 -3 -12 -20 -9 -41 -20 -42 -34 -3
-13 38 -28 38 -36 0 -9 -43 -22 -45 -29 -5 -4 19 -12 35 -18 35 -6 0 -8 -9 -4
-22z"/>
<path d="M1707 503 c9 -21 17 -55 16 -77 -1 -21 3 -34 7 -30 14 15 61 136 56
142 -7 7 -8 6 -28 -38 l-16 -35 -18 38 c-10 20 -21 37 -26 37 -5 0 -1 -17 9
-37z"/>
<path d="M2140 483 c0 -34 4 -52 10 -48 6 3 10 24 10 45 0 33 4 40 28 48 26
10 26 10 -10 9 l-38 0 0 -54z"/>
<path d="M2560 483 c0 -34 4 -52 10 -48 6 3 10 24 10 45 0 33 4 40 28 48 26
10 26 10 -10 9 l-38 0 0 -54z"/>
<path d="M3401 477 c-33 -17 -32 -32 4 -34 27 -3 75 21 64 31 -13 12 -47 14
-68 3z"/>
<path d="M3484 445 c-15 -11 -16 -14 -3 -15 8 0 24 7 35 15 15 11 16 14 3 15
-8 0 -24 -7 -35 -15z"/>
<path d="M3280 410 c0 -5 18 -10 40 -10 22 0 40 5 40 10 0 6 -18 10 -40 10
-22 0 -40 -4 -40 -10z"/>
</g>
</svg>
