<svg xmlns="http://www.w3.org/2000/svg" width="666" height="256" viewBox="0 0 666 256"><path fill="#fff" fill-rule="evenodd" stroke="#fff" stroke-linejoin="round" stroke-width=".25" d="M310.35 53.68c3.26-.48 7.27-.18 10.11 1.62 6.29 3.99 6.24 14.8-.46 18.43-2.04 1.1-4.49 1.24-6.75 1.24-3.22.01-6.44-.45-9.14-2.35-8.78-6.18-2.83-17.6 6.24-18.94Zm-45.34 11.07v18.29h18.88v18.71c-5.41 2.84-13.03-1.02-18.64 1.16-1.48 5.41-.47 21.05-.21 27.34.13 3.04.49 6.86 3.13 8.84 4.65 3.49 12.09.87 17.15.16 1.88 2.98 2.39 16.05 1.47 19.5-5.41 1.11-10.44 2.24-16.04 2.35-3.81.08-7.32-.31-11-1.14-19.85-4.49-16.22-31.27-16.29-46.21-.01-3.53.61-7.93-.44-11.27H232V83.1h11.13c.3-5.28.59-10.57.89-15.85 3.15-.87 18.68-3.44 20.99-2.5Zm-130.26 94.49c-3.46 1.01-18.2.98-21.37-.49-.79-3.74-.23-8.16-.24-12-.03-10.47.41-21.04.02-31.5-.26-6.85-1.45-14.71-9.91-15.28-4.96-.33-11.78-.26-15.74 3.3-4.35 3.9-4.42 11.58-4.52 16.98-.15 8.82-.1 17.68-.1 26.5 0 4.11.58 8.66-.14 12.69h-20.5c-1.24-5.72-.4-12.33-.41-18.19-.03-12 .08-24 .03-36-.02-4.8-1.03-18.26.63-22 3.46-.55 16.65-1.15 19.21.5.17 5.06-3.15 17.04-1.13 21 2.17-1.79 1.73-6.2 2.65-8.83 1.88-5.34 5.63-10.12 10.83-12.6 12.72-6.08 31.85-2.31 37.81 11.52 5.3 12.31 3.15 27.77 3.15 40.91 0 7.54 1.1 16.1-.27 23.49Zm261.28-65.31V83.07h21.68v76.18h-21.72c-.75-5.07.02-10.84.71-15.9.3-2.19 1.26-5.65.05-7.45-1.21 1.51-1.32 4.27-1.93 6.25-1.53 4.95-3.53 10.25-7.85 13.56-4.95 3.81-10.52 5.29-16.72 5.34-17.69.13-28.28-12.88-32.03-28.95-1.31-5.64-1.09-12.17-.41-17.88 2.76-23.1 19.04-37.33 42.88-32.07 4.12.91 8.35 3.58 10.95 6.94 1.38 1.78 2.4 3.88 4.39 4.84Zm-174.28 32.79c-4.16.76-8.77.25-13 .25-8.33.01-16.67 0-25 .01-4.1 0-10.89-1.24-14.5.59.21 1.93 1.51 3.83 2.4 5.53 5.96 11.44 22.37 9.91 32.9 6.65 3.85-1.19 8.19-3.1 12.2-3.13.36 6.04.71 12.09 1.07 18.13-3.57 2.04-7.52 2.89-11.43 3.96-16.49 4.5-36.11 3.32-48.27-10.07-6.98-7.7-9.25-18.31-9.29-28.39-.01-5.9 1.23-11.81 3.43-17.27 13.56-33.53 67.21-27.07 69.7 10.77.26 4.03 1.17 9.12-.21 12.97ZM322.97 83v76.24h-20.96V83zm-121.49 30.01c-1.78-18.91-30.05-17.23-31.73 0zm173.34-12.79c-4.8.34-9.88 2.02-13.03 5.82-6.17 7.42-5.2 24.98 1.85 31.56 4.4 4.11 10.23 5.06 16.11 4.39 16.71-1.91 19.98-26.42 10.18-37.16-3.49-3.83-10.19-4.95-15.11-4.61Zm179.68 85.76c.23.52.46 1.05.69 1.58-1.59.72-2.87 1.68-4.52.69 1.28-.76 2.55-1.51 3.83-2.27Z"/><path fill="#1999bd" fill-rule="evenodd" stroke="#1999bd" stroke-linejoin="round" stroke-width=".25" d="M538.86 49.25c-1.8 1.62-13.89 1.6-15.11-1.08 1.46-2.29 13.68-1.57 15.11 1.08Zm-27.74 2c-2.75 3.03-9.29 6.62-12.92 3.5 1.67-3.52 9.92-6.61 12.92-3.5Zm46.74 6.5c-4.38.82-16.82.52-15.61-6.45 4-2.29 16.65.56 15.61 6.45Zm-54.01 7c1.54 6.89-13.65 15.68-16.55 8.73-2.44-5.84 11.55-13.44 16.55-8.73Zm7.87 4.93c19.29-.81 9.08 25.39-6.4 20.22-12.62-4.21-4.87-19.75 6.4-20.22Zm58.53 13.55c10.89-.39 18.46 18.58 7.38 22.59-12.42 4.5-22.47-22.05-7.38-22.59Zm-108 7.07c1.95 2.59-.82 8.46-3 10.52-1.71-2.64.6-8.58 3-10.52Zm2.5 7.58c4.73 2.05 3.89 8.64 2.3 12.41-.91 2.13-2.1 5.54-5.09 4.97-7.25-1.38-.49-14.72 2.79-17.38Zm119.06 6.23c10.16-2.89 12.33 19.85 3.94 21.08-9.15 1.34-12.05-18.77-3.94-21.08Zm-80.63 2.94c18.36-3.01 22.88 22.88 4.57 26.73-2 .42-3.65-.22-5.51-.78-12.22-3.64-12.49-23.75.94-25.95Zm95.57 2.38c3.73 1.7 4.18 10.11 2.5 13.44-4.08-.39-4.37-10.76-2.5-13.44Zm-72.92 16.7c2.47-.74 5.31-.21 7.55.7 12.13 4.93 13.6 22.37.22 26.94-18.34 6.26-26.88-21.83-7.77-27.64Zm57.06 17.48c4.02-1.23 5.23 2.44 5.1 5.64-.16 4.14-5.27 12.26-10.21 11.22-2.93-.61-3.28-3.81-2.98-6.31.55-4.49 3.56-9.15 8.09-10.55Zm-114.14 9.46c6.29-.43 14.77 8.6 10.5 14.73-6.81 1.12-16.34-8.48-10.5-14.73Zm122 2.06c.91 4.11-3.19 10.99-7.5 11.56-2.62-3.41 3.67-11.52 7.5-11.56Zm-65.97 11.99c6.94-1.65 19.77 5.35 11.82 12.71-4.58 4.24-17.84 3.64-20.36-2.77-2.02-5.13 4.63-9.01 8.54-9.94Zm-27.56 14.13c-6.23 4.71-17.2-3.78-14.76-11 5.6-1.28 16.55 3.85 14.76 11Zm54.81-.5c.37 6.16-12.66 9.52-15.43 4 .88-5.66 11.78-8.11 15.43-4Z"/><path fill="#fff" fill-rule="evenodd" stroke="#fff" stroke-linejoin="round" stroke-width=".25" d="M475.75 72.79c.25 3.23-4.41 9.4-7.5 10.5-.78-3.94 4.07-9.05 7.5-10.5Zm-370.5 92.55c.33 1.52.67 3.04 1 4.55 2.03.46 4.06.91 6.09 1.36-1.45 2.33-3.82 1.17-6.09 1.73-.62 2.93-1.32 10.8 1.97 12.55 1.4.75 3.12.28 4.53.95-1.82 2.51-7.11 1.93-8.45-1.01-1.62-3.58.21-7.84-.56-11.52-.25-1.16-.97-1.91-.93-3.2.04-1.77 1.05-4.46 2.44-5.41Zm250.5.09c1.75.89 1.37 2.5 1.56 4.32 2.26.53 4.33.07 5.86 2-1.65 1.58-3.79 1-5.92 1.48-.42 2.6-.81 10.52 1.58 12.21 1.58 1.12 3.7.02 5.09 1.31-1.49 2.73-7.26 1.26-8.57-1.35-1.96-3.94-.13-8.48-1.1-12.41-2.49-1.06-8.41-.43-10.59 1.26-.05 3.87 1.48 10.14-1.41 13.21-1.86-1.09-1.84-14.51-.5-16.43 1.1.04 1.95.77 2.97.77 1.5 0 7.35-.76 9.03-1.05.67-1.78 1.33-3.55 2-5.32ZM76.9 187.25c-1.5.41-3.05.03-4.65.22-4.27.48-8.95 1.03-9.11-4.72-.25-8.46 10.84-4.13 11.35-9-2.86-2.55-9.1.59-10.18-3 1.4-1.01 3.14-.75 4.94-.7 7.67.25 8.59 4.97 8.15 11.7-.13 1.88.18 3.74-.5 5.5Zm7.35-17.17c3.5 2.93-1.84 15.81 5.5 15.59 10.16-.31 1.95-13.64 7-15.48 1.41 2.81 1.63 13.87.5 16.74-1.46.66-2.76.17-4.34.32-2.05.19-4.2 1.13-6.26.37-4.85-1.78-4.27-13.82-2.4-17.54Zm37.11.09c10.87-3.21 13.59 15.71 3.83 17.66-10.15 2.03-12.9-14.98-3.83-17.66Zm15.89-.01c.83.54 1.67 1.09 2.5 1.64 3.61-.52 7.21-1.03 10.82-1.55 2.06 4.15 4.12 8.29 6.18 12.44 3.2-2.15 3.4-11.43 7.13-12.44.91 1.87-.84 4.45-1.51 6.36-1.34 3.75-5.13 14.8-8.62 16.39-1.28-2.05 1.5-4.33 1.37-6.75-.17-3.12-4.52-11.55-6.37-14.25-2.86.02-7.43.57-9.77 2.25-.08 4.31.72 9.32-1.23 13.3-2.2-2.48-1.52-14.02-.5-17.39Zm53.62.01c10.76-3.21 13.6 15.84 3.35 17.71-10.3 1.89-12.75-14.91-3.35-17.71Zm25 .08c3.69 2.53 2.6 9.83 5.88 12.53 1.18-3.81 1.16-9.04 4-11.95 1.47 1.88-1.77 15.09-4 16.67-4.53-1.86-3.25-9.32-5.46-12.75-3.34 1.93-1.93 10.73-7.04 12.4-2.45-1.91-4.54-13.73-4-16.91 3.42 2.59 3.41 8.64 5 12.44 1.87-4.14 3.75-8.29 5.62-12.43Zm28.88 17.07c-4.22.75-13.98 2.38-14.44-4.07-.55-7.75 9.31-4.48 12.06-8.5-1.67-3.82-7.5-.49-10.41-3 1.6-3.22 9.7-1.76 11.88.65 1.9 2.09 1.59 12.14.91 14.92Zm20 .54c-4.57-2.68 2.14-17.4-6.78-15.61-1.23.25-2.59.6-3.78 1-.64 4.63-1.29 9.26-1.94 13.89-2.25-2.42-1.43-12.94-1-16.39 1.23-.06 2.24.42 3.5.39 2.45-.07 4.22-1.8 6.91-1 4.7 1.4 5.19 14.29 3.09 17.72Zm5.5-17.71c4.24 2.33 4.14 9.22 7.5 12.16 2.82-2.57 2.64-10.58 7-11.13-.09 4.44-4.53 12.61-6.49 16.8-.96 2.07-1.75 4.41-4.01 5.18-.42-2.7 2.3-4.79 1.73-7.38-1.14-5.19-6.94-9.87-5.73-15.63Zm34.62 18.1-1.62 5.7c-2.05-.91-1.29-3.69-1.29-5.7.02-5.49-.91-11.93.29-17.26 2.67-.39 6.7-1.58 9.37-.8 6.13 1.78 6.69 11.73 2.43 15.6-2.85 2.6-5.84 1.6-9.18 2.46Zm29.2-1.5c-4.27 1.81-13.8 2.7-14.02-4-.24-7.23 9.68-4.01 12-8.5-1.92-4.01-7.11-.1-9.97-2.5 1.21-3.1 8.47-2.25 10.71-.3 2.32 2.03 2.46 12.71 1.28 15.3Zm47.18.36c-4.85-1.99 2.27-15.88-6.27-14.83-1.3.16-2.75.64-4.02.97-1.42 3.89 1.32 11.25-1.71 14.22-2.2-2.09-1.73-13.3-1-16.38 3.07-.45 7.25-1.84 10.32-.85 4.68 1.51 4.85 13.76 2.68 16.87Zm21.59-8.36-13.59.87c.05 1.26.86 2.23 1.55 3.3 3.38 5.2 7.15 1.03 11.45 1.44.25 3.83-5.64 4-8.47 3.5-5.57-.96-8.32-7.35-6.57-12.46 3-8.72 16.06-6.77 15.63 3.35Zm15.36-7.5c-1.85 2.78-5.24.99-7.82 2.5-1.31 3.9 1.43 10.57-1.13 13.77-2.72-1.17-1.54-14.23-1-17.27 3.32.33 6.63.67 9.95 1Zm-236.18 0c-3.45 4.5-6.9 9-10.36 13.5 3.35.95 8-.81 10.71 2-2.08 1.68-12.32 1.38-14.42 0 3.23-4.5 6.47-9 9.7-13.5-2.84-1.81-7.03 1.06-9.71-2 1.39-1.34 12.46-1.28 14.08 0Zm-59.19 1.03c-7.14.8-5.56 15.01 1.4 13.67 6.43-1.24 6.03-14.51-1.4-13.67Zm69.42-.01c-6.56.47-6.44 13.24.01 13.57 7.3.38 8-14.15-.01-13.57Zm112.84 13.48c12.84 1.96 11.39-18.41-.6-12.5-.83 3.17-.79 9.56.6 12.5Zm94.87-8.8c.03-6.64-9.65-6.12-10.22 0zm-325.33 2.8c-2.6-1.44-6.28-.19-8.51 1.5-.37 1.89-.25 3 .97 4.5 3.49.79 9.31-1.66 7.54-6Zm167.39-.5c-3.49-.58-9.56.27-8.77 4.94 2.73 2.53 5.5 1.2 8.77.56zm89.98 0c-3.73-.63-9.32.29-8.97 5 2.69 2.6 5.74 1.2 8.97.5zm223.19 8.31c-.23-.53-.46-1.06-.69-1.58 1.96-1.69 5.61-2.23 7.92-1.73-2.41 1.1-4.82 2.2-7.23 3.31Z"/><path fill="#e01e65" fill-rule="evenodd" stroke="#e01e65" stroke-linejoin="round" stroke-width=".25" d="M528.86 56.64c5.01-1.27 19.18 2.14 14.48 9.94-6.86 11.41-35.05-4.73-14.48-9.94Zm50.89 15.57c5.09 1.78 14.03 8.33 9 14.5-5.84.7-14.36-9.75-9-14.5Zm-100.91 5.93c3.93-1.22 5.49 1.78 5.2 5.11-.38 4.29-5.5 13.59-11.03 11.47-6.87-2.64 1.31-15.19 5.83-16.58Zm71.52 25.02c2.19-.65 4.47-.06 6.51.65 6.89 2.38 10.39 7.03 10.19 14.44-.06 2.36-.51 5.05-2.15 6.9-1.41 1.59-3.09 2.54-4.79 3.71-1.15.79-2.47 1.85-3.88 2.11-16.34 3.09-21.29-23.23-5.88-27.81Zm-93.11 27.3c-2.77-1.95-3.45-11.9-1.35-14.21 3.14.44 3.32 12.22 1.35 14.21Zm24.63 1.72c11.75-4.53 22.37 17.66 9.72 22.6-11.86 4.64-20.89-18.29-9.72-22.6Zm115.87 6.13c2.16 2.26-.88 10.2-3 12.39-1.86-2.4.84-10.32 3-12.39Zm-32.97 24.83c15.85-4.16 2.96 16.64-6.26 12.57-6.86-3.04 2.41-11.56 6.26-12.57Zm-30.03 27.52c.03 3.9-12.82 3.14-13.61.09 2.63-2.25 10.71-1.9 13.61-.09Z"/><path fill="#abce4b" fill-rule="evenodd" stroke="#abce4b" stroke-linejoin="round" stroke-width=".25" d="M491.75 59.1c1.78 4.15-6.46 9.66-9.95 7.65-.42-4.07 6.76-7.69 9.95-7.65Zm54.59 8c9.31-3.38 25.96 7.59 17.46 16.47-5.81 6.08-16.81 1.97-20.61-4.45-2.37-4.02-1.78-10.23 3.15-12.02Zm-56.51 22.04c14.08-.94 10.5 22.87-2.08 22.61-13.72-.29-9.78-21.82 2.08-22.61Zm101.42.87c5.71-.22 10.23 11.79 5 15.01-5.12-3.16-6.49-9.49-5-15.01Zm-20.53 36.02c13.54-3.03 11.09 23.96-1.47 23.04-13.37-.98-9.81-20.53 1.47-23.04Zm-69.96 26.02c9.05-2.54 24.2 9.39 14.29 17.74-6.4 5.41-16.66.93-19.8-6.25-2.18-5 .39-10.06 5.51-11.49Zm76.99 18.98c.83 3.83-6.12 10.07-9.6 7.22 1.65-3.3 5.76-7.44 9.6-7.22Zm-60.74 17.72c-4.25 4.28-14.69 1.08-17.08-4l1.32-2.58c5.26-.86 14.66 0 15.76 6.58Z"/><path fill="#7a6492" fill-rule="evenodd" stroke="#7a6492" stroke-linejoin="round" stroke-width=".25" d="M523.98 55.75c-3.71 4.1-13.16 7.28-16.89 1.5 1.98-4.24 16.27-8.63 16.89-1.5Zm51.77 14.14c-1.88.31-4.44.43-6.28-.16-2.91-.95-10.33-5.48-8.3-9.33 1.22-2.3 4.52-1.4 6.22-.61 4 1.87 9.68 4.91 8.36 10.1Zm-47 13.19c10.82-2.64 21.32 9.29 16.06 19.52-1.96 3.82-6.64 6.28-10.57 7.25-2.14.53-3.68-.04-5.62-.65-7.33-2.32-12.29-8.77-10.49-16.88 1.1-4.96 6.06-8.12 10.62-9.24Zm-57.48 28.97c10.03-2.7 12.95 20.65 2.98 22.84-10 2.19-12.88-20.18-2.98-22.84Zm122.48 11.15c.98.52 2.53 1.12 3.04 2.21 1.85 3.98-.04 13.03-4.54 14.55-6.3-2.57-3.93-14.22 1.5-16.76Zm-134 10.07c5.9 3.06 9.16 11.85 4.5 17.46-4.54-4.13-9.48-11.73-4.5-17.46Zm91.43 12.8c6.35-.8 12.53 5.91 10.71 12.15-2.07 7.11-10.92 11.79-18.03 9.61-4.87-1.5-7.3-7.8-5.66-12.45 1.78-5.03 8.04-8.68 12.98-9.31Z"/></svg>